<?xml version="1.0" encoding="utf-8"?>
<!-- Svg Vector Icons : http://www.onlinewebfonts.com/icon -->
<!DOCTYPE svg PUBLIC "-//W3C//DTD SVG 1.1//EN" "http://www.w3.org/Graphics/SVG/1.1/DTD/svg11.dtd">
<svg version="1.1" fill="#FFFFFF" xmlns="http://www.w3.org/2000/svg" xmlns:xlink="http://www.w3.org/1999/xlink" x="0px" y="0px" viewBox="0 0 1000 1000" enable-background="new 0 0 1000 1000" xml:space="preserve">
<metadata> Svg Vector Icons : http://www.onlinewebfonts.com/icon </metadata>
<g><g transform="translate(0.000000,511.000000) scale(0.100000,-0.100000)"><path d="M4868.4,4977.5c-110-50.2-1439.3-1398.6-1460.8-1479.9c-62.2-253.4,143.4-480.6,392.1-435.1c74.1,12,155.4,83.7,475.8,401.6l387.3,382.5l7.2-1329.3c7.2-1298.2,7.2-1329.3,57.4-1393.8c86.1-114.8,160.2-157.8,284.5-157.8c124.3,0,198.4,43,284.5,157.8c50.2,64.6,50.2,95.6,57.4,1396.2L5361,3849l387.3-384.9c320.4-318,401.7-389.7,475.8-401.6c119.5-23.9,241.5,21.5,329.9,121.9c57.4,66.9,71.7,105.2,71.7,191.3c0,59.8-14.3,136.3-33.5,172.1c-52.6,98-1379.5,1410.6-1456,1439.3C5045.4,5018.1,4956.9,5015.7,4868.4,4977.5z"/><path d="M1569.1,1709.3C1495,1668.6,170.5,344.1,132.3,272.4c-43-83.7-43-217.6,0-301.2c19.1-35.9,346.7-375.4,729.2-755.5l693.3-693.3l141.1-9.6c131.5-9.6,145.8-4.8,227.1,66.9c50.2,43,100.4,114.8,114.8,167.4c50.2,165,4.8,236.7-404,652.7l-373,375.4h1276.7c769.8,0,1312.5,9.5,1365.1,23.9c136.3,38.2,220,143.4,229.5,291.7c7.2,98-2.4,145.8-38.3,203.2c-100.4,160.2-59.8,155.4-1511,155.4c-722,0-1312.5,4.8-1312.5,14.3c0,7.2,169.7,186.5,380.1,396.9c337.1,344.3,380.1,396.9,396.9,485.3c33.5,200.8-131.5,389.7-332.3,389.7C1660,1735.6,1595.4,1723.6,1569.1,1709.3z"/><path d="M8143.8,1683c-148.2-81.3-220-222.3-191.3-372.9c12-74.1,83.7-157.8,413.6-487.7l396.9-401.7H7426.6c-1286.2,0-1341.3-2.4-1415.4-47.8c-160.2-98-203.2-339.5-86.1-480.6c121.9-143.4,98-141,1518.2-141h1295.8l-373-375.4c-294.1-298.8-380.1-399.3-401.7-475.8c-71.7-243.8,145.8-471,396.9-416c74.1,16.7,205.6,136.3,779.4,710.1c380.1,377.7,707.7,717.2,726.8,753.1c40.6,76.5,43,217.5,7.2,289.3c-38.3,74.1-1358,1398.6-1436.9,1441.7C8361.4,1718.8,8210.8,1721.2,8143.8,1683z"/><path d="M4815.8-798.7c-169.7-102.8-162.6-28.7-169.7-1503.8l-7.2-1324.5l-375.3,370.6c-296.5,294.1-396.9,377.7-471,399.2c-131.5,35.9-253.4-2.4-344.3-105.2c-64.6-74.1-74.1-102.8-74.1-222.3v-133.9l724.4-726.8c676.6-676.6,731.6-726.8,822.5-738.8c55-7.2,129.1-4.8,167.4,2.4c74.1,19.1,1420.1,1341.2,1479.9,1453.6c95.6,179.3-7.2,416-208,473.4c-167.4,47.8-241.5,2.4-647.9-401.7L5337.1-3627l-7.2,1312.5c-7.2,1209.8-9.6,1319.7-50.2,1391.4C5191.2-760.4,4973.6-703,4815.8-798.7z"/></g></g>
</svg>